<svg id="visual" viewBox="0 0 900 600" width="900" height="600" xmlns="http://www.w3.org/2000/svg" xmlns:xlink="http://www.w3.org/1999/xlink" version="1.1"><g transform="translate(446.92872710030827 293.940902176132)"><path d="M137.8 -166.9C179.1 -129.5 213.7 -86.6 223.5 -38.3C233.3 10 218.4 63.7 190.1 106.9C161.8 150.1 120.1 182.6 69 210C18 237.4 -42.3 259.7 -88.1 242.7C-133.9 225.8 -165.3 169.6 -188.4 115.6C-211.5 61.5 -226.4 9.5 -218 -38.6C-209.7 -86.6 -178.1 -130.6 -137.9 -168.2C-97.7 -205.8 -48.9 -236.9 -0.3 -236.5C48.2 -236.1 96.4 -204.2 137.8 -166.9" fill="#715DF2"></path></g></svg>